<svg xmlns="http://www.w3.org/2000/svg" width="800" height="250" viewBox="0 0 800 250">
  <defs>
    <linearGradient id="skyGradient" x1="0%" y1="0%" x2="100%" y2="100%">
      <stop offset="0%" stop-color="#0d041c" />
      <stop offset="50%" stop-color="#180a30" />
      <stop offset="100%" stop-color="#05010f" />
    </linearGradient>
    <style>
      .star { fill: #ffffff; animation: twinkle ease-in-out infinite alternate; }
      @keyframes twinkle { 0% { opacity: 0.1; r: 0.5px; } 100% { opacity: 1; r: 2px; } }
      .shooting-star { fill: none; stroke: #ffffff; stroke-width: 1.5; stroke-dasharray: 150; stroke-dashoffset: 150; animation: shoot linear infinite; opacity: 0; }
      @keyframes shoot { 0% { stroke-dashoffset: 150; opacity: 1; } 10% { stroke-dashoffset: 0; opacity: 0; } 100% { stroke-dashoffset: 0; opacity: 0; } }
    </style>
  </defs>
  <rect width="100%" height="100%" fill="url(#skyGradient)" />
  <circle class="star" cx="764.86" cy="1.94" r="0.86" style="animation-duration: 3.04s; animation-delay: 1.36s;" />
  <circle class="star" cx="693.58" cy="82.22" r="0.63" style="animation-duration: 3.58s; animation-delay: 3.09s;" />
  <circle class="star" cx="186.93" cy="210.72" r="0.69" style="animation-duration: 3.33s; animation-delay: 4.17s;" />
  <circle class="star" cx="152.45" cy="236.69" r="0.94" style="animation-duration: 3.08s; animation-delay: 3.72s;" />
  <circle class="star" cx="459.77" cy="200.54" r="0.91" style="animation-duration: 2.10s; animation-delay: 3.47s;" />
  <circle class="star" cx="520.73" cy="9.70" r="0.99" style="animation-duration: 1.78s; animation-delay: 2.25s;" />
  <circle class="star" cx="447.99" cy="42.79" r="0.98" style="animation-duration: 3.21s; animation-delay: 2.67s;" />
  <circle class="star" cx="399.30" cy="191.59" r="0.81" style="animation-duration: 2.03s; animation-delay: 0.34s;" />
  <circle class="star" cx="217.51" cy="0.08" r="0.85" style="animation-duration: 3.88s; animation-delay: 0.19s;" />
  <circle class="star" cx="308.78" cy="192.94" r="1.00" style="animation-duration: 3.14s; animation-delay: 2.22s;" />
  <circle class="star" cx="225.18" cy="18.71" r="1.13" style="animation-duration: 3.96s; animation-delay: 1.25s;" />
  <circle class="star" cx="269.61" cy="176.84" r="0.52" style="animation-duration: 2.19s; animation-delay: 2.96s;" />
  <circle class="star" cx="720.54" cy="239.56" r="1.15" style="animation-duration: 2.75s; animation-delay: 2.24s;" />
  <circle class="star" cx="287.48" cy="39.76" r="0.77" style="animation-duration: 2.20s; animation-delay: 2.86s;" />
  <circle class="star" cx="503.79" cy="175.23" r="1.02" style="animation-duration: 3.18s; animation-delay: 0.66s;" />
  <circle class="star" cx="86.09" cy="154.25" r="1.31" style="animation-duration: 3.51s; animation-delay: 0.97s;" />
  <circle class="star" cx="123.09" cy="133.55" r="1.21" style="animation-duration: 2.06s; animation-delay: 3.48s;" />
  <circle class="star" cx="688.28" cy="192.61" r="1.46" style="animation-duration: 3.85s; animation-delay: 1.59s;" />
  <circle class="star" cx="475.83" cy="74.60" r="1.22" style="animation-duration: 2.60s; animation-delay: 0.25s;" />
  <circle class="star" cx="324.60" cy="79.40" r="1.29" style="animation-duration: 3.96s; animation-delay: 0.27s;" />
  <circle class="star" cx="705.14" cy="241.51" r="1.14" style="animation-duration: 1.69s; animation-delay: 3.49s;" />
  <circle class="star" cx="757.16" cy="212.82" r="0.76" style="animation-duration: 3.97s; animation-delay: 2.01s;" />
  <circle class="star" cx="656.25" cy="214.01" r="0.56" style="animation-duration: 3.80s; animation-delay: 4.42s;" />
  <circle class="star" cx="54.82" cy="5.87" r="1.36" style="animation-duration: 2.78s; animation-delay: 1.48s;" />
  <circle class="star" cx="634.65" cy="219.83" r="0.96" style="animation-duration: 3.53s; animation-delay: 4.67s;" />
  <circle class="star" cx="224.85" cy="48.89" r="1.17" style="animation-duration: 3.67s; animation-delay: 1.42s;" />
  <circle class="star" cx="126.57" cy="80.43" r="0.82" style="animation-duration: 2.07s; animation-delay: 3.45s;" />
  <circle class="star" cx="342.45" cy="41.20" r="0.59" style="animation-duration: 2.92s; animation-delay: 3.72s;" />
  <circle class="star" cx="764.26" cy="215.37" r="1.02" style="animation-duration: 3.87s; animation-delay: 3.66s;" />
  <circle class="star" cx="66.33" cy="176.52" r="0.87" style="animation-duration: 3.28s; animation-delay: 2.70s;" />
  <circle class="star" cx="492.75" cy="112.57" r="0.76" style="animation-duration: 2.11s; animation-delay: 3.72s;" />
  <circle class="star" cx="132.36" cy="88.99" r="0.62" style="animation-duration: 2.42s; animation-delay: 2.45s;" />
  <circle class="star" cx="429.25" cy="128.41" r="1.40" style="animation-duration: 2.80s; animation-delay: 2.77s;" />
  <circle class="star" cx="660.55" cy="206.50" r="1.43" style="animation-duration: 2.71s; animation-delay: 4.05s;" />
  <circle class="star" cx="647.40" cy="38.12" r="1.11" style="animation-duration: 2.83s; animation-delay: 0.05s;" />
  <circle class="star" cx="346.79" cy="125.04" r="0.90" style="animation-duration: 3.13s; animation-delay: 4.04s;" />
  <circle class="star" cx="539.88" cy="94.10" r="0.82" style="animation-duration: 2.13s; animation-delay: 4.49s;" />
  <circle class="star" cx="665.43" cy="101.37" r="0.64" style="animation-duration: 3.79s; animation-delay: 3.94s;" />
  <circle class="star" cx="698.62" cy="61.46" r="0.81" style="animation-duration: 2.61s; animation-delay: 2.58s;" />
  <circle class="star" cx="218.02" cy="143.48" r="0.78" style="animation-duration: 3.57s; animation-delay: 0.50s;" />
  <circle class="star" cx="53.86" cy="164.22" r="1.04" style="animation-duration: 3.75s; animation-delay: 2.87s;" />
  <circle class="star" cx="538.10" cy="203.00" r="0.94" style="animation-duration: 1.95s; animation-delay: 4.42s;" />
  <circle class="star" cx="122.28" cy="25.72" r="0.82" style="animation-duration: 3.88s; animation-delay: 0.89s;" />
  <circle class="star" cx="247.90" cy="231.44" r="1.50" style="animation-duration: 2.13s; animation-delay: 1.51s;" />
  <circle class="star" cx="169.45" cy="61.18" r="0.50" style="animation-duration: 2.94s; animation-delay: 4.38s;" />
  <circle class="star" cx="452.61" cy="107.07" r="1.46" style="animation-duration: 2.36s; animation-delay: 1.16s;" />
  <circle class="star" cx="162.33" cy="212.09" r="0.55" style="animation-duration: 2.10s; animation-delay: 0.70s;" />
  <circle class="star" cx="676.64" cy="192.04" r="0.74" style="animation-duration: 3.34s; animation-delay: 1.70s;" />
  <circle class="star" cx="716.29" cy="127.82" r="0.81" style="animation-duration: 3.93s; animation-delay: 4.49s;" />
  <circle class="star" cx="504.64" cy="77.89" r="1.05" style="animation-duration: 1.90s; animation-delay: 0.84s;" />
  <circle class="star" cx="331.16" cy="11.61" r="1.33" style="animation-duration: 2.73s; animation-delay: 4.46s;" />
  <circle class="star" cx="551.38" cy="105.17" r="1.42" style="animation-duration: 1.90s; animation-delay: 4.92s;" />
  <circle class="star" cx="650.47" cy="33.90" r="1.14" style="animation-duration: 3.89s; animation-delay: 3.08s;" />
  <circle class="star" cx="614.64" cy="89.13" r="1.20" style="animation-duration: 3.88s; animation-delay: 3.37s;" />
  <circle class="star" cx="385.85" cy="16.23" r="0.91" style="animation-duration: 1.88s; animation-delay: 4.85s;" />
  <circle class="star" cx="483.53" cy="87.47" r="1.04" style="animation-duration: 2.19s; animation-delay: 0.34s;" />
  <circle class="star" cx="75.14" cy="17.01" r="1.06" style="animation-duration: 2.88s; animation-delay: 1.95s;" />
  <circle class="star" cx="492.21" cy="232.25" r="0.90" style="animation-duration: 3.54s; animation-delay: 2.80s;" />
  <circle class="star" cx="478.82" cy="212.75" r="1.25" style="animation-duration: 3.98s; animation-delay: 1.85s;" />
  <circle class="star" cx="718.79" cy="41.92" r="0.61" style="animation-duration: 3.91s; animation-delay: 2.93s;" />
  <circle class="star" cx="575.11" cy="186.29" r="1.29" style="animation-duration: 3.56s; animation-delay: 0.88s;" />
  <circle class="star" cx="164.44" cy="125.03" r="1.07" style="animation-duration: 3.65s; animation-delay: 2.91s;" />
  <circle class="star" cx="295.59" cy="69.54" r="0.99" style="animation-duration: 3.23s; animation-delay: 3.40s;" />
  <circle class="star" cx="321.78" cy="201.45" r="0.67" style="animation-duration: 2.21s; animation-delay: 2.17s;" />
  <circle class="star" cx="315.06" cy="132.31" r="1.03" style="animation-duration: 2.18s; animation-delay: 4.98s;" />
  <circle class="star" cx="704.40" cy="140.29" r="1.40" style="animation-duration: 3.84s; animation-delay: 1.04s;" />
  <circle class="star" cx="183.81" cy="107.53" r="1.00" style="animation-duration: 1.84s; animation-delay: 2.52s;" />
  <circle class="star" cx="787.88" cy="131.53" r="0.70" style="animation-duration: 3.64s; animation-delay: 3.18s;" />
  <circle class="star" cx="307.56" cy="163.62" r="0.62" style="animation-duration: 2.58s; animation-delay: 3.68s;" />
  <circle class="star" cx="190.05" cy="105.64" r="0.75" style="animation-duration: 2.60s; animation-delay: 1.09s;" />
  <circle class="star" cx="392.52" cy="103.13" r="0.59" style="animation-duration: 3.12s; animation-delay: 3.29s;" />
  <circle class="star" cx="613.42" cy="197.40" r="1.02" style="animation-duration: 2.61s; animation-delay: 0.08s;" />
  <circle class="star" cx="319.69" cy="8.47" r="0.89" style="animation-duration: 2.41s; animation-delay: 3.69s;" />
  <circle class="star" cx="266.36" cy="100.39" r="0.89" style="animation-duration: 3.50s; animation-delay: 0.83s;" />
  <circle class="star" cx="460.11" cy="84.04" r="1.08" style="animation-duration: 2.21s; animation-delay: 3.67s;" />
  <circle class="star" cx="394.80" cy="9.87" r="0.84" style="animation-duration: 3.64s; animation-delay: 1.67s;" />
  <circle class="star" cx="442.46" cy="192.21" r="0.87" style="animation-duration: 1.89s; animation-delay: 1.56s;" />
  <circle class="star" cx="500.05" cy="227.78" r="1.13" style="animation-duration: 2.11s; animation-delay: 2.09s;" />
  <circle class="star" cx="474.07" cy="176.34" r="0.64" style="animation-duration: 3.96s; animation-delay: 2.08s;" />
  <circle class="star" cx="709.48" cy="103.50" r="1.22" style="animation-duration: 3.58s; animation-delay: 2.77s;" />
  <circle class="star" cx="611.76" cy="246.88" r="0.93" style="animation-duration: 2.10s; animation-delay: 0.51s;" />
  <circle class="star" cx="215.50" cy="136.02" r="0.77" style="animation-duration: 1.59s; animation-delay: 4.46s;" />
  <circle class="star" cx="392.84" cy="157.60" r="0.91" style="animation-duration: 2.83s; animation-delay: 3.80s;" />
  <circle class="star" cx="158.68" cy="140.78" r="0.94" style="animation-duration: 1.60s; animation-delay: 2.11s;" />
  <circle class="star" cx="580.64" cy="96.11" r="1.43" style="animation-duration: 3.39s; animation-delay: 4.85s;" />
  <circle class="star" cx="431.11" cy="17.93" r="0.53" style="animation-duration: 3.92s; animation-delay: 4.09s;" />
  <circle class="star" cx="281.84" cy="15.25" r="1.19" style="animation-duration: 2.88s; animation-delay: 0.56s;" />
  <circle class="star" cx="144.07" cy="65.27" r="0.77" style="animation-duration: 2.45s; animation-delay: 2.76s;" />
  <circle class="star" cx="91.54" cy="12.63" r="1.26" style="animation-duration: 3.30s; animation-delay: 4.79s;" />
  <circle class="star" cx="211.42" cy="28.22" r="1.17" style="animation-duration: 3.12s; animation-delay: 4.01s;" />
  <circle class="star" cx="486.44" cy="3.70" r="1.41" style="animation-duration: 2.34s; animation-delay: 2.44s;" />
  <circle class="star" cx="364.87" cy="235.14" r="1.11" style="animation-duration: 3.51s; animation-delay: 4.26s;" />
  <circle class="star" cx="193.81" cy="5.37" r="1.11" style="animation-duration: 3.88s; animation-delay: 2.73s;" />
  <circle class="star" cx="200.20" cy="172.27" r="0.78" style="animation-duration: 3.47s; animation-delay: 2.51s;" />
  <circle class="star" cx="749.23" cy="202.48" r="1.03" style="animation-duration: 1.66s; animation-delay: 2.41s;" />
  <circle class="star" cx="189.34" cy="185.16" r="1.21" style="animation-duration: 2.84s; animation-delay: 1.41s;" />
  <circle class="star" cx="353.05" cy="226.26" r="1.43" style="animation-duration: 2.27s; animation-delay: 3.03s;" />
  <circle class="star" cx="97.91" cy="249.74" r="0.74" style="animation-duration: 3.92s; animation-delay: 3.05s;" />
  <circle class="star" cx="754.74" cy="100.54" r="1.32" style="animation-duration: 3.31s; animation-delay: 4.09s;" />
  <circle class="star" cx="645.45" cy="45.19" r="0.82" style="animation-duration: 3.74s; animation-delay: 0.63s;" />
  <circle class="star" cx="290.43" cy="145.61" r="0.59" style="animation-duration: 2.76s; animation-delay: 1.35s;" />
  <circle class="star" cx="467.10" cy="129.79" r="1.46" style="animation-duration: 3.97s; animation-delay: 1.18s;" />
  <circle class="star" cx="785.96" cy="40.81" r="1.06" style="animation-duration: 3.68s; animation-delay: 4.90s;" />
  <circle class="star" cx="413.05" cy="182.28" r="0.91" style="animation-duration: 2.39s; animation-delay: 2.34s;" />
  <circle class="star" cx="441.36" cy="204.38" r="0.63" style="animation-duration: 1.54s; animation-delay: 3.82s;" />
  <circle class="star" cx="508.98" cy="211.41" r="1.03" style="animation-duration: 3.41s; animation-delay: 1.52s;" />
  <circle class="star" cx="628.34" cy="161.99" r="0.88" style="animation-duration: 3.12s; animation-delay: 2.63s;" />
  <circle class="star" cx="527.18" cy="51.99" r="1.50" style="animation-duration: 2.32s; animation-delay: 4.65s;" />
  <circle class="star" cx="116.16" cy="175.15" r="1.26" style="animation-duration: 3.31s; animation-delay: 3.17s;" />
  <circle class="star" cx="246.41" cy="108.00" r="1.15" style="animation-duration: 2.81s; animation-delay: 1.74s;" />
  <circle class="star" cx="41.80" cy="174.31" r="0.74" style="animation-duration: 2.46s; animation-delay: 1.83s;" />
  <circle class="star" cx="117.41" cy="145.47" r="0.54" style="animation-duration: 3.66s; animation-delay: 3.81s;" />
  <circle class="star" cx="732.47" cy="69.66" r="0.99" style="animation-duration: 3.88s; animation-delay: 1.55s;" />
  <circle class="star" cx="631.29" cy="91.91" r="0.72" style="animation-duration: 2.77s; animation-delay: 3.21s;" />
  <circle class="star" cx="219.85" cy="24.26" r="0.52" style="animation-duration: 3.80s; animation-delay: 0.57s;" />
  <circle class="star" cx="744.68" cy="2.88" r="0.56" style="animation-duration: 3.32s; animation-delay: 1.40s;" />
  <circle class="star" cx="20.48" cy="230.06" r="0.57" style="animation-duration: 2.31s; animation-delay: 0.14s;" />
  <circle class="star" cx="464.30" cy="37.09" r="1.23" style="animation-duration: 2.19s; animation-delay: 1.38s;" />
  <circle class="star" cx="450.14" cy="216.85" r="1.30" style="animation-duration: 2.21s; animation-delay: 1.34s;" />
  <circle class="star" cx="342.74" cy="103.26" r="1.07" style="animation-duration: 2.77s; animation-delay: 0.39s;" />
  <circle class="star" cx="635.52" cy="81.39" r="0.69" style="animation-duration: 3.98s; animation-delay: 3.02s;" />
  <circle class="star" cx="313.83" cy="6.73" r="1.00" style="animation-duration: 2.06s; animation-delay: 2.03s;" />
  <circle class="star" cx="234.46" cy="188.20" r="0.54" style="animation-duration: 1.57s; animation-delay: 1.92s;" />
  <circle class="star" cx="369.65" cy="27.62" r="1.25" style="animation-duration: 2.64s; animation-delay: 1.04s;" />
  <circle class="star" cx="548.53" cy="81.40" r="1.35" style="animation-duration: 1.52s; animation-delay: 3.67s;" />
  <circle class="star" cx="139.46" cy="43.95" r="0.85" style="animation-duration: 3.33s; animation-delay: 4.07s;" />
  <circle class="star" cx="228.54" cy="232.13" r="1.13" style="animation-duration: 1.71s; animation-delay: 3.71s;" />
  <circle class="star" cx="175.94" cy="108.01" r="1.40" style="animation-duration: 3.81s; animation-delay: 0.77s;" />
  <circle class="star" cx="417.70" cy="247.37" r="1.02" style="animation-duration: 2.85s; animation-delay: 0.77s;" />
  <circle class="star" cx="219.11" cy="115.38" r="1.09" style="animation-duration: 3.60s; animation-delay: 3.04s;" />
  <circle class="star" cx="149.90" cy="30.58" r="0.73" style="animation-duration: 3.53s; animation-delay: 3.34s;" />
  <circle class="star" cx="179.71" cy="216.19" r="0.54" style="animation-duration: 1.86s; animation-delay: 2.42s;" />
  <circle class="star" cx="610.61" cy="157.26" r="1.05" style="animation-duration: 2.66s; animation-delay: 2.63s;" />
  <circle class="star" cx="74.86" cy="142.49" r="0.90" style="animation-duration: 2.65s; animation-delay: 4.46s;" />
  <circle class="star" cx="385.59" cy="52.10" r="1.14" style="animation-duration: 3.50s; animation-delay: 1.31s;" />
  <circle class="star" cx="466.78" cy="99.71" r="1.37" style="animation-duration: 2.18s; animation-delay: 2.18s;" />
  <circle class="star" cx="458.52" cy="76.07" r="0.77" style="animation-duration: 3.30s; animation-delay: 1.51s;" />
  <circle class="star" cx="574.50" cy="198.09" r="0.96" style="animation-duration: 3.06s; animation-delay: 2.07s;" />
  <circle class="star" cx="450.43" cy="65.88" r="1.08" style="animation-duration: 1.70s; animation-delay: 2.12s;" />
  <circle class="star" cx="265.44" cy="2.94" r="1.39" style="animation-duration: 3.12s; animation-delay: 0.36s;" />
  <circle class="star" cx="26.39" cy="70.44" r="0.60" style="animation-duration: 3.09s; animation-delay: 0.78s;" />
  <circle class="star" cx="401.99" cy="86.14" r="1.30" style="animation-duration: 3.00s; animation-delay: 0.73s;" />
  <circle class="star" cx="257.66" cy="85.22" r="0.74" style="animation-duration: 2.12s; animation-delay: 3.84s;" />
  <circle class="star" cx="775.34" cy="192.15" r="0.94" style="animation-duration: 1.54s; animation-delay: 0.70s;" />
  <circle class="star" cx="162.18" cy="25.36" r="0.79" style="animation-duration: 2.13s; animation-delay: 3.24s;" />
  <circle class="star" cx="582.10" cy="180.73" r="0.64" style="animation-duration: 3.67s; animation-delay: 3.78s;" />
  <circle class="star" cx="100.14" cy="21.97" r="1.13" style="animation-duration: 2.69s; animation-delay: 1.37s;" />
  <circle class="star" cx="569.90" cy="170.79" r="1.17" style="animation-duration: 2.26s; animation-delay: 2.63s;" />
  <circle class="star" cx="28.99" cy="147.00" r="1.43" style="animation-duration: 2.95s; animation-delay: 0.72s;" />
  <circle class="star" cx="442.51" cy="101.31" r="1.49" style="animation-duration: 2.56s; animation-delay: 0.18s;" />
  <circle class="star" cx="730.03" cy="101.34" r="1.36" style="animation-duration: 2.75s; animation-delay: 3.43s;" />
  <circle class="star" cx="795.50" cy="131.72" r="1.15" style="animation-duration: 3.09s; animation-delay: 4.46s;" />
  <circle class="star" cx="197.39" cy="106.06" r="1.37" style="animation-duration: 2.13s; animation-delay: 2.82s;" />
  <circle class="star" cx="645.30" cy="198.26" r="1.19" style="animation-duration: 2.40s; animation-delay: 0.34s;" />
  <circle class="star" cx="481.65" cy="130.36" r="1.39" style="animation-duration: 3.70s; animation-delay: 3.51s;" />
  <circle class="star" cx="581.12" cy="154.92" r="0.66" style="animation-duration: 1.77s; animation-delay: 0.34s;" />
  <circle class="star" cx="7.99" cy="199.03" r="1.46" style="animation-duration: 1.84s; animation-delay: 4.59s;" />
  <circle class="star" cx="269.03" cy="42.07" r="0.86" style="animation-duration: 2.15s; animation-delay: 4.54s;" />
  <circle class="star" cx="339.74" cy="86.07" r="1.09" style="animation-duration: 3.80s; animation-delay: 4.98s;" />
  <circle class="star" cx="89.25" cy="41.66" r="0.71" style="animation-duration: 3.29s; animation-delay: 2.31s;" />
  <circle class="star" cx="496.76" cy="93.44" r="1.10" style="animation-duration: 3.70s; animation-delay: 2.32s;" />
  <circle class="star" cx="301.75" cy="167.37" r="1.47" style="animation-duration: 3.38s; animation-delay: 2.98s;" />
  <circle class="star" cx="295.81" cy="110.32" r="0.53" style="animation-duration: 4.00s; animation-delay: 3.58s;" />
  <circle class="star" cx="291.06" cy="64.55" r="1.11" style="animation-duration: 2.72s; animation-delay: 1.50s;" />
  <circle class="star" cx="444.38" cy="51.27" r="0.88" style="animation-duration: 3.46s; animation-delay: 4.34s;" />
  <circle class="star" cx="634.25" cy="55.95" r="1.49" style="animation-duration: 1.55s; animation-delay: 3.21s;" />
  <circle class="star" cx="107.64" cy="102.60" r="0.53" style="animation-duration: 3.64s; animation-delay: 4.49s;" />
  <circle class="star" cx="768.39" cy="212.66" r="1.32" style="animation-duration: 2.19s; animation-delay: 1.15s;" />
  <circle class="star" cx="349.54" cy="174.31" r="1.13" style="animation-duration: 2.29s; animation-delay: 4.25s;" />
  <circle class="star" cx="22.94" cy="169.19" r="1.16" style="animation-duration: 3.89s; animation-delay: 3.19s;" />
  <circle class="star" cx="638.28" cy="7.91" r="1.18" style="animation-duration: 3.20s; animation-delay: 0.67s;" />
  <circle class="star" cx="35.76" cy="25.80" r="0.78" style="animation-duration: 2.13s; animation-delay: 1.95s;" />
  <circle class="star" cx="229.60" cy="80.25" r="0.55" style="animation-duration: 2.80s; animation-delay: 3.09s;" />
  <circle class="star" cx="302.81" cy="73.64" r="1.38" style="animation-duration: 2.23s; animation-delay: 1.91s;" />
  <circle class="star" cx="642.29" cy="39.87" r="0.84" style="animation-duration: 3.15s; animation-delay: 2.07s;" />
  <circle class="star" cx="655.49" cy="189.15" r="1.27" style="animation-duration: 2.92s; animation-delay: 0.82s;" />
  <circle class="star" cx="516.14" cy="11.33" r="0.71" style="animation-duration: 2.28s; animation-delay: 0.55s;" />
  <circle class="star" cx="366.60" cy="36.41" r="0.68" style="animation-duration: 2.66s; animation-delay: 3.82s;" />
  <circle class="star" cx="288.17" cy="21.65" r="0.66" style="animation-duration: 3.30s; animation-delay: 2.44s;" />
  <circle class="star" cx="237.13" cy="112.11" r="0.80" style="animation-duration: 2.01s; animation-delay: 2.88s;" />
  <circle class="star" cx="293.94" cy="206.03" r="0.91" style="animation-duration: 3.49s; animation-delay: 3.34s;" />
  <circle class="star" cx="298.97" cy="190.65" r="0.84" style="animation-duration: 1.77s; animation-delay: 2.70s;" />
  <circle class="star" cx="660.38" cy="97.88" r="0.79" style="animation-duration: 2.53s; animation-delay: 0.65s;" />
  <circle class="star" cx="185.34" cy="190.66" r="0.83" style="animation-duration: 3.37s; animation-delay: 4.61s;" />
  <circle class="star" cx="283.70" cy="70.03" r="1.42" style="animation-duration: 3.78s; animation-delay: 0.29s;" />
  <circle class="star" cx="667.80" cy="11.72" r="1.03" style="animation-duration: 2.29s; animation-delay: 1.15s;" />
  <circle class="star" cx="501.13" cy="110.94" r="1.09" style="animation-duration: 1.61s; animation-delay: 2.35s;" />
  <circle class="star" cx="140.83" cy="79.21" r="1.08" style="animation-duration: 3.18s; animation-delay: 1.46s;" />
  <circle class="star" cx="159.68" cy="124.40" r="0.56" style="animation-duration: 2.55s; animation-delay: 3.11s;" />
  <circle class="star" cx="351.56" cy="171.31" r="0.77" style="animation-duration: 3.20s; animation-delay: 2.43s;" />
  <circle class="star" cx="637.22" cy="203.28" r="0.94" style="animation-duration: 3.26s; animation-delay: 2.56s;" />
  <circle class="star" cx="627.15" cy="240.12" r="0.93" style="animation-duration: 2.63s; animation-delay: 2.59s;" />
  <circle class="star" cx="332.23" cy="185.83" r="0.54" style="animation-duration: 2.73s; animation-delay: 3.52s;" />
  <circle class="star" cx="713.72" cy="120.11" r="0.84" style="animation-duration: 3.32s; animation-delay: 3.85s;" />
  <circle class="star" cx="507.97" cy="163.32" r="0.94" style="animation-duration: 3.79s; animation-delay: 4.69s;" />
  <circle class="star" cx="238.48" cy="64.40" r="1.10" style="animation-duration: 2.19s; animation-delay: 1.30s;" />
  <circle class="star" cx="547.06" cy="51.39" r="0.96" style="animation-duration: 2.25s; animation-delay: 4.32s;" />
  <circle class="star" cx="672.86" cy="106.98" r="1.45" style="animation-duration: 3.87s; animation-delay: 0.81s;" />
  <circle class="star" cx="101.07" cy="81.33" r="1.26" style="animation-duration: 3.83s; animation-delay: 2.05s;" />
  <circle class="star" cx="516.89" cy="185.75" r="1.06" style="animation-duration: 2.23s; animation-delay: 0.73s;" />
  <circle class="star" cx="739.70" cy="17.82" r="0.86" style="animation-duration: 3.93s; animation-delay: 1.70s;" />
  <circle class="star" cx="618.07" cy="158.57" r="1.04" style="animation-duration: 2.54s; animation-delay: 1.61s;" />
  <circle class="star" cx="562.95" cy="108.89" r="1.09" style="animation-duration: 2.65s; animation-delay: 1.60s;" />
  <circle class="star" cx="574.61" cy="0.28" r="1.06" style="animation-duration: 1.85s; animation-delay: 2.34s;" />
  <circle class="star" cx="150.13" cy="73.70" r="0.50" style="animation-duration: 1.61s; animation-delay: 3.67s;" />
  <circle class="star" cx="236.11" cy="233.65" r="1.32" style="animation-duration: 3.75s; animation-delay: 0.47s;" />
  <circle class="star" cx="528.30" cy="78.28" r="1.04" style="animation-duration: 2.15s; animation-delay: 1.07s;" />
  <circle class="star" cx="366.41" cy="42.89" r="1.19" style="animation-duration: 2.42s; animation-delay: 4.22s;" />
  <circle class="star" cx="451.23" cy="90.48" r="0.94" style="animation-duration: 1.93s; animation-delay: 3.55s;" />
  <circle class="star" cx="472.06" cy="189.24" r="1.36" style="animation-duration: 1.93s; animation-delay: 0.06s;" />
  <circle class="star" cx="526.44" cy="132.69" r="0.72" style="animation-duration: 1.67s; animation-delay: 0.23s;" />
  <circle class="star" cx="692.13" cy="128.13" r="0.59" style="animation-duration: 3.20s; animation-delay: 0.23s;" />
  <circle class="star" cx="206.22" cy="213.73" r="1.40" style="animation-duration: 2.53s; animation-delay: 1.43s;" />
  <circle class="star" cx="47.91" cy="59.17" r="0.58" style="animation-duration: 1.61s; animation-delay: 1.78s;" />
  <circle class="star" cx="694.10" cy="237.74" r="1.03" style="animation-duration: 2.16s; animation-delay: 4.01s;" />
  <circle class="star" cx="142.80" cy="88.23" r="1.27" style="animation-duration: 3.57s; animation-delay: 0.05s;" />
  <circle class="star" cx="382.35" cy="39.13" r="1.29" style="animation-duration: 1.90s; animation-delay: 3.08s;" />
  <circle class="star" cx="589.65" cy="227.32" r="1.21" style="animation-duration: 2.75s; animation-delay: 3.36s;" />
  <circle class="star" cx="95.43" cy="202.89" r="1.02" style="animation-duration: 3.98s; animation-delay: 4.93s;" />
  <circle class="star" cx="115.99" cy="179.56" r="0.97" style="animation-duration: 3.38s; animation-delay: 0.24s;" />
  <circle class="star" cx="57.79" cy="212.63" r="0.84" style="animation-duration: 3.54s; animation-delay: 4.74s;" />
  <circle class="star" cx="712.35" cy="155.27" r="0.50" style="animation-duration: 3.46s; animation-delay: 4.77s;" />
  <circle class="star" cx="164.58" cy="52.11" r="1.26" style="animation-duration: 2.34s; animation-delay: 3.18s;" />
  <circle class="star" cx="365.63" cy="162.22" r="0.80" style="animation-duration: 2.37s; animation-delay: 3.10s;" />
  <circle class="star" cx="554.04" cy="2.82" r="0.50" style="animation-duration: 2.29s; animation-delay: 2.51s;" />
  <circle class="star" cx="615.85" cy="59.54" r="0.60" style="animation-duration: 3.75s; animation-delay: 4.82s;" />
  <circle class="star" cx="310.67" cy="146.30" r="0.74" style="animation-duration: 1.71s; animation-delay: 1.08s;" />
  <circle class="star" cx="333.04" cy="214.53" r="1.32" style="animation-duration: 2.30s; animation-delay: 1.09s;" />
  <circle class="star" cx="266.29" cy="57.74" r="0.70" style="animation-duration: 2.82s; animation-delay: 3.17s;" />
  <circle class="star" cx="509.40" cy="235.15" r="0.86" style="animation-duration: 1.65s; animation-delay: 3.64s;" />
  <circle class="star" cx="283.62" cy="240.98" r="0.72" style="animation-duration: 1.88s; animation-delay: 0.49s;" />
  <circle class="star" cx="749.86" cy="239.09" r="0.96" style="animation-duration: 2.51s; animation-delay: 3.95s;" />
  <circle class="star" cx="775.58" cy="9.13" r="1.18" style="animation-duration: 2.03s; animation-delay: 4.52s;" />
  <circle class="star" cx="145.31" cy="88.81" r="0.98" style="animation-duration: 2.42s; animation-delay: 4.89s;" />
  <circle class="star" cx="268.24" cy="54.66" r="1.21" style="animation-duration: 1.91s; animation-delay: 0.31s;" />
  <circle class="star" cx="270.27" cy="114.80" r="1.32" style="animation-duration: 3.60s; animation-delay: 2.43s;" />
  <circle class="star" cx="202.19" cy="95.99" r="1.33" style="animation-duration: 2.80s; animation-delay: 1.95s;" />
  <circle class="star" cx="558.27" cy="56.01" r="0.87" style="animation-duration: 1.60s; animation-delay: 0.86s;" />
  <circle class="star" cx="653.08" cy="182.23" r="0.98" style="animation-duration: 3.65s; animation-delay: 4.30s;" />
  <circle class="star" cx="173.43" cy="154.53" r="1.42" style="animation-duration: 1.62s; animation-delay: 3.66s;" />
  <circle class="star" cx="585.84" cy="40.46" r="1.22" style="animation-duration: 2.23s; animation-delay: 4.21s;" />
  <circle class="star" cx="388.88" cy="33.99" r="1.13" style="animation-duration: 2.04s; animation-delay: 1.11s;" />
  <circle class="star" cx="468.25" cy="113.44" r="0.55" style="animation-duration: 1.86s; animation-delay: 2.54s;" />
  <circle class="star" cx="372.03" cy="71.84" r="1.04" style="animation-duration: 3.63s; animation-delay: 1.84s;" />
  <circle class="star" cx="552.72" cy="236.25" r="1.23" style="animation-duration: 2.98s; animation-delay: 0.04s;" />
  <circle class="star" cx="439.37" cy="150.04" r="1.30" style="animation-duration: 3.84s; animation-delay: 2.84s;" />
  <circle class="star" cx="409.14" cy="77.33" r="0.85" style="animation-duration: 3.65s; animation-delay: 4.90s;" />
  <circle class="star" cx="270.13" cy="146.85" r="1.13" style="animation-duration: 1.53s; animation-delay: 3.05s;" />
  <circle class="star" cx="519.09" cy="74.09" r="0.54" style="animation-duration: 1.59s; animation-delay: 0.82s;" />
  <circle class="star" cx="454.65" cy="231.08" r="1.41" style="animation-duration: 3.89s; animation-delay: 4.48s;" />
  <line class="shooting-star" x1="429.97" y1="55.53" x2="229.97" y2="255.53" style="animation-duration: 8s; animation-delay: 4.06s;" />
  <line class="shooting-star" x1="464.41" y1="5.50" x2="264.41" y2="205.50" style="animation-duration: 8s; animation-delay: 9.46s;" />
  <line class="shooting-star" x1="372.78" y1="0.65" x2="172.78" y2="200.65" style="animation-duration: 8s; animation-delay: 9.73s;" />
  <line class="shooting-star" x1="689.54" y1="80.62" x2="489.54" y2="280.62" style="animation-duration: 8s; animation-delay: 5.49s;" />
</svg>